<svg width="334" height="14" viewBox="0 0 334 14" fill="none" xmlns="http://www.w3.org/2000/svg">
<path d="M15.6211 14H7.10156C6.17188 14 5.32812 13.8281 4.57031 13.4844C3.8125 13.1406 3.16406 12.6719 2.625 12.0781C2.08594 11.4766 1.66797 10.7734 1.37109 9.96875C1.08203 9.15625 0.9375 8.28516 0.9375 7.35547C0.9375 6.43359 1.08203 5.57422 1.37109 4.77734C1.66797 3.97266 2.08594 3.27344 2.625 2.67969C3.16406 2.08594 3.8125 1.61719 4.57031 1.27344C5.32812 0.929688 6.17188 0.757812 7.10156 0.757812H15.6211V3.17188H7.10156C6.52344 3.17188 6 3.28125 5.53125 3.5C5.07031 3.71875 4.67969 4.01562 4.35938 4.39062C4.03906 4.76562 3.79297 5.20703 3.62109 5.71484C3.44922 6.22266 3.36328 6.76953 3.36328 7.35547C3.36328 7.94922 3.44922 8.50391 3.62109 9.01953C3.79297 9.52734 4.03906 9.97266 4.35938 10.3555C4.67969 10.7305 5.07031 11.0273 5.53125 11.2461C6 11.4648 6.52344 11.5742 7.10156 11.5742H15.6211V14ZM32.7656 10.1094C32.7656 10.6484 32.6641 11.1562 32.4609 11.6328C32.2578 12.1016 31.9805 12.5117 31.6289 12.8633C31.2852 13.2148 30.875 13.4922 30.3984 13.6953C29.9297 13.8984 29.4258 14 28.8867 14H17.6719V11.5977H28.8867C29.0977 11.5977 29.293 11.5625 29.4727 11.4922C29.6602 11.4141 29.8203 11.3086 29.9531 11.1758C30.0938 11.0352 30.2031 10.875 30.2812 10.6953C30.3594 10.5156 30.3984 10.3203 30.3984 10.1094C30.3984 9.89844 30.3594 9.70312 30.2812 9.52344C30.2031 9.33594 30.0938 9.17578 29.9531 9.04297C29.8203 8.90234 29.6602 8.79297 29.4727 8.71484C29.293 8.63672 29.0977 8.59766 28.8867 8.59766H21.5391C21.0078 8.59766 20.5078 8.49609 20.0391 8.29297C19.5703 8.08984 19.1602 7.8125 18.8086 7.46094C18.457 7.10156 18.1797 6.68359 17.9766 6.20703C17.7734 5.73047 17.6719 5.22266 17.6719 4.68359C17.6719 4.16016 17.7734 3.66406 17.9766 3.19531C18.1797 2.71875 18.457 2.30469 18.8086 1.95312C19.1602 1.60156 19.5703 1.32422 20.0391 1.12109C20.5078 0.910156 21.0078 0.804688 21.5391 0.804688H31.8867V3.17188H21.5391C21.3359 3.17188 21.1406 3.21484 20.9531 3.30078C20.7734 3.37891 20.6172 3.48828 20.4844 3.62891C20.3516 3.76172 20.2461 3.92188 20.168 4.10938C20.0898 4.28906 20.0508 4.48047 20.0508 4.68359C20.0508 4.89453 20.0898 5.09375 20.168 5.28125C20.2461 5.46094 20.3516 5.62109 20.4844 5.76172C20.6172 5.89453 20.7734 6 20.9531 6.07812C21.1406 6.15625 21.3359 6.19531 21.5391 6.19531H28.8867C29.4258 6.19531 29.9297 6.30078 30.3984 6.51172C30.875 6.71484 31.2852 6.99609 31.6289 7.35547C31.9805 7.70703 32.2578 8.12109 32.4609 8.59766C32.6641 9.07422 32.7656 9.57812 32.7656 10.1094ZM49.7344 10.1094C49.7344 10.6484 49.6328 11.1562 49.4297 11.6328C49.2266 12.1016 48.9492 12.5117 48.5977 12.8633C48.2539 13.2148 47.8438 13.4922 47.3672 13.6953C46.8984 13.8984 46.3945 14 45.8555 14H34.6406V11.5977H45.8555C46.0664 11.5977 46.2617 11.5625 46.4414 11.4922C46.6289 11.4141 46.7891 11.3086 46.9219 11.1758C47.0625 11.0352 47.1719 10.875 47.25 10.6953C47.3281 10.5156 47.3672 10.3203 47.3672 10.1094C47.3672 9.89844 47.3281 9.70312 47.25 9.52344C47.1719 9.33594 47.0625 9.17578 46.9219 9.04297C46.7891 8.90234 46.6289 8.79297 46.4414 8.71484C46.2617 8.63672 46.0664 8.59766 45.8555 8.59766H38.5078C37.9766 8.59766 37.4766 8.49609 37.0078 8.29297C36.5391 8.08984 36.1289 7.8125 35.7773 7.46094C35.4258 7.10156 35.1484 6.68359 34.9453 6.20703C34.7422 5.73047 34.6406 5.22266 34.6406 4.68359C34.6406 4.16016 34.7422 3.66406 34.9453 3.19531C35.1484 2.71875 35.4258 2.30469 35.7773 1.95312C36.1289 1.60156 36.5391 1.32422 37.0078 1.12109C37.4766 0.910156 37.9766 0.804688 38.5078 0.804688H48.8555V3.17188H38.5078C38.3047 3.17188 38.1094 3.21484 37.9219 3.30078C37.7422 3.37891 37.5859 3.48828 37.4531 3.62891C37.3203 3.76172 37.2148 3.92188 37.1367 4.10938C37.0586 4.28906 37.0195 4.48047 37.0195 4.68359C37.0195 4.89453 37.0586 5.09375 37.1367 5.28125C37.2148 5.46094 37.3203 5.62109 37.4531 5.76172C37.5859 5.89453 37.7422 6 37.9219 6.07812C38.1094 6.15625 38.3047 6.19531 38.5078 6.19531H45.8555C46.3945 6.19531 46.8984 6.30078 47.3672 6.51172C47.8438 6.71484 48.2539 6.99609 48.5977 7.35547C48.9492 7.70703 49.2266 8.12109 49.4297 8.59766C49.6328 9.07422 49.7344 9.57812 49.7344 10.1094ZM75.7031 10.1094C75.7031 10.6484 75.6016 11.1562 75.3984 11.6328C75.1953 12.1016 74.918 12.5117 74.5664 12.8633C74.2227 13.2148 73.8125 13.4922 73.3359 13.6953C72.8672 13.8984 72.3633 14 71.8242 14H60.6094V11.5977H71.8242C72.0352 11.5977 72.2305 11.5625 72.4102 11.4922C72.5977 11.4141 72.7578 11.3086 72.8906 11.1758C73.0312 11.0352 73.1406 10.875 73.2188 10.6953C73.2969 10.5156 73.3359 10.3203 73.3359 10.1094C73.3359 9.89844 73.2969 9.70312 73.2188 9.52344C73.1406 9.33594 73.0312 9.17578 72.8906 9.04297C72.7578 8.90234 72.5977 8.79297 72.4102 8.71484C72.2305 8.63672 72.0352 8.59766 71.8242 8.59766H64.4766C63.9453 8.59766 63.4453 8.49609 62.9766 8.29297C62.5078 8.08984 62.0977 7.8125 61.7461 7.46094C61.3945 7.10156 61.1172 6.68359 60.9141 6.20703C60.7109 5.73047 60.6094 5.22266 60.6094 4.68359C60.6094 4.16016 60.7109 3.66406 60.9141 3.19531C61.1172 2.71875 61.3945 2.30469 61.7461 1.95312C62.0977 1.60156 62.5078 1.32422 62.9766 1.12109C63.4453 0.910156 63.9453 0.804688 64.4766 0.804688H74.8242V3.17188H64.4766C64.2734 3.17188 64.0781 3.21484 63.8906 3.30078C63.7109 3.37891 63.5547 3.48828 63.4219 3.62891C63.2891 3.76172 63.1836 3.92188 63.1055 4.10938C63.0273 4.28906 62.9883 4.48047 62.9883 4.68359C62.9883 4.89453 63.0273 5.09375 63.1055 5.28125C63.1836 5.46094 63.2891 5.62109 63.4219 5.76172C63.5547 5.89453 63.7109 6 63.8906 6.07812C64.0781 6.15625 64.2734 6.19531 64.4766 6.19531H71.8242C72.3633 6.19531 72.8672 6.30078 73.3359 6.51172C73.8125 6.71484 74.2227 6.99609 74.5664 7.35547C74.918 7.70703 75.1953 8.12109 75.3984 8.59766C75.6016 9.07422 75.7031 9.57812 75.7031 10.1094ZM92.0742 14H89.6719V8.62109H81.7383V6.21875H89.6719V0.804688H92.0742V14ZM80.6016 14H78.1992V0.804688H80.6016V14ZM110.648 14H108.246V10.3789H99V7.92969H108.246V3.17188H102C101.414 3.17188 100.863 3.28516 100.348 3.51172C99.832 3.73047 99.3828 4.03125 99 4.41406C98.6172 4.79688 98.3125 5.24609 98.0859 5.76172C97.8672 6.26953 97.7578 6.81641 97.7578 7.40234V14H95.332V7.40234C95.332 6.48047 95.5078 5.61719 95.8594 4.8125C96.2109 4.00781 96.6875 3.30469 97.2891 2.70312C97.8906 2.10156 98.5977 1.62891 99.4102 1.28516C100.223 0.933594 101.086 0.757812 102 0.757812H110.648V14ZM129.762 7.35547C129.762 8.28516 129.613 9.15625 129.316 9.96875C129.02 10.7734 128.602 11.4766 128.062 12.0781C127.523 12.6719 126.871 13.1406 126.105 13.4844C125.348 13.8281 124.508 14 123.586 14H117.691V11.5742H123.586C124.172 11.5742 124.695 11.4648 125.156 11.2461C125.617 11.0273 126.008 10.7305 126.328 10.3555C126.656 9.97266 126.906 9.52734 127.078 9.01953C127.25 8.50391 127.336 7.94922 127.336 7.35547C127.336 6.76953 127.25 6.22266 127.078 5.71484C126.906 5.20703 126.656 4.76562 126.328 4.39062C126.008 4.01562 125.617 3.71875 125.156 3.5C124.695 3.28125 124.172 3.17188 123.586 3.17188H116.555V14H114.105V0.757812H123.586C124.508 0.757812 125.348 0.929688 126.105 1.27344C126.871 1.61719 127.523 2.08594 128.062 2.67969C128.602 3.27344 129.02 3.97266 129.316 4.77734C129.613 5.57422 129.762 6.43359 129.762 7.35547ZM147.996 7.37891C147.996 8.29297 147.852 9.15234 147.562 9.95703C147.273 10.7539 146.859 11.4531 146.32 12.0547C145.789 12.6562 145.148 13.1328 144.398 13.4844C143.656 13.8281 142.828 14 141.914 14H137.742C136.828 14 135.996 13.8281 135.246 13.4844C134.496 13.1328 133.852 12.6562 133.312 12.0547C132.781 11.4531 132.371 10.7539 132.082 9.95703C131.793 9.15234 131.648 8.29297 131.648 7.37891C131.648 6.47266 131.793 5.62109 132.082 4.82422C132.371 4.02734 132.781 3.33203 133.312 2.73828C133.852 2.13672 134.496 1.66406 135.246 1.32031C135.996 0.976562 136.828 0.804688 137.742 0.804688H141.914C142.828 0.804688 143.656 0.976562 144.398 1.32031C145.148 1.66406 145.789 2.13672 146.32 2.73828C146.859 3.33203 147.273 4.02734 147.562 4.82422C147.852 5.62109 147.996 6.47266 147.996 7.37891ZM145.594 7.37891C145.594 6.80078 145.508 6.25781 145.336 5.75C145.172 5.23438 144.93 4.78906 144.609 4.41406C144.297 4.03125 143.914 3.73047 143.461 3.51172C143.008 3.28516 142.492 3.17188 141.914 3.17188H137.742C137.164 3.17188 136.645 3.28516 136.184 3.51172C135.73 3.73047 135.344 4.03125 135.023 4.41406C134.711 4.78906 134.469 5.23438 134.297 5.75C134.133 6.25781 134.051 6.80078 134.051 7.37891C134.051 7.95703 134.133 8.50391 134.297 9.01953C134.469 9.52734 134.711 9.97266 135.023 10.3555C135.344 10.7383 135.73 11.043 136.184 11.2695C136.645 11.4883 137.164 11.5977 137.742 11.5977H141.914C142.492 11.5977 143.008 11.4883 143.461 11.2695C143.914 11.043 144.297 10.7383 144.609 10.3555C144.93 9.97266 145.172 9.52734 145.336 9.01953C145.508 8.50391 145.594 7.95703 145.594 7.37891ZM167.449 9.17188C167.449 9.84375 167.32 10.4727 167.062 11.0586C166.812 11.6445 166.469 12.1562 166.031 12.5938C165.594 13.0234 165.078 13.3672 164.484 13.625C163.898 13.875 163.27 14 162.598 14C161.887 14 161.223 13.8516 160.605 13.5547C159.996 13.25 159.469 12.8398 159.023 12.3242C158.578 12.8398 158.035 13.25 157.395 13.5547C156.754 13.8516 156.066 14 155.332 14C154.676 14 154.055 13.875 153.469 13.625C152.883 13.3672 152.367 13.0234 151.922 12.5938C151.484 12.1562 151.137 11.6445 150.879 11.0586C150.629 10.4727 150.504 9.84375 150.504 9.17188V0.804688H152.906V9.17188C152.906 9.51562 152.969 9.83594 153.094 10.1328C153.219 10.4297 153.391 10.6875 153.609 10.9062C153.828 11.1172 154.086 11.2852 154.383 11.4102C154.68 11.5352 154.996 11.5977 155.332 11.5977C155.676 11.5977 155.996 11.5352 156.293 11.4102C156.59 11.2852 156.848 11.1172 157.066 10.9062C157.293 10.6875 157.469 10.4297 157.594 10.1328C157.719 9.83594 157.781 9.51562 157.781 9.17188V0.804688H160.207V8.89062C160.207 9.26562 160.27 9.62109 160.395 9.95703C160.52 10.2852 160.688 10.5703 160.898 10.8125C161.117 11.0547 161.371 11.2461 161.66 11.3867C161.949 11.5273 162.262 11.5977 162.598 11.5977C162.941 11.5977 163.262 11.5352 163.559 11.4102C163.855 11.2852 164.113 11.1172 164.332 10.9062C164.559 10.6875 164.734 10.4297 164.859 10.1328C164.984 9.83594 165.047 9.51562 165.047 9.17188V0.804688H167.449V9.17188ZM193.652 14H185.133C184.203 14 183.359 13.8281 182.602 13.4844C181.844 13.1406 181.195 12.6719 180.656 12.0781C180.117 11.4766 179.699 10.7734 179.402 9.96875C179.113 9.15625 178.969 8.28516 178.969 7.35547C178.969 6.43359 179.113 5.57422 179.402 4.77734C179.699 3.97266 180.117 3.27344 180.656 2.67969C181.195 2.08594 181.844 1.61719 182.602 1.27344C183.359 0.929688 184.203 0.757812 185.133 0.757812H193.652V3.17188H185.133C184.555 3.17188 184.031 3.28125 183.562 3.5C183.102 3.71875 182.711 4.01562 182.391 4.39062C182.07 4.76562 181.824 5.20703 181.652 5.71484C181.48 6.22266 181.395 6.76953 181.395 7.35547C181.395 7.94922 181.48 8.50391 181.652 9.01953C181.824 9.52734 182.07 9.97266 182.391 10.3555C182.711 10.7305 183.102 11.0273 183.562 11.2461C184.031 11.4648 184.555 11.5742 185.133 11.5742H191.227V8.52734H184.348V6.10156H193.652V14ZM210.48 14H196.699V0.757812H210.48V3.17188H199.125V11.5742H210.48V14ZM208.945 8.52734H200.262V6.10156H208.945V8.52734ZM225.281 14C225.281 13.125 225.133 12.2773 224.836 11.457C224.547 10.6289 224.152 9.85156 223.652 9.125C223.16 8.39062 222.586 7.70703 221.93 7.07422C221.281 6.44141 220.598 5.87891 219.879 5.38672C219.16 4.88672 218.426 4.46875 217.676 4.13281C216.934 3.78906 216.227 3.53516 215.555 3.37109V14H213.152V0.804688H214.453V0.828125C215.312 0.875 216.227 1.06641 217.195 1.40234C218.172 1.73047 219.141 2.17969 220.102 2.75C221.07 3.3125 222 3.98438 222.891 4.76562C223.789 5.53906 224.586 6.39453 225.281 7.33203V0.804688H227.672V14H225.281ZM244.91 14H231.129V0.757812H244.91V3.17188H233.555V11.5742H244.91V14ZM243.375 8.52734H234.691V6.10156H243.375V8.52734ZM263.121 14H259.852L256.102 10.4258H251.238V8.04688H257.883C258.219 8.04688 258.535 7.98047 258.832 7.84766C259.129 7.71484 259.387 7.53906 259.605 7.32031C259.824 7.09375 259.996 6.83203 260.121 6.53516C260.246 6.23828 260.309 5.92578 260.309 5.59766C260.309 5.26172 260.246 4.94922 260.121 4.66016C259.996 4.36328 259.824 4.10547 259.605 3.88672C259.387 3.66797 259.129 3.49609 258.832 3.37109C258.535 3.23828 258.219 3.17188 257.883 3.17188H249.984V14H247.582V0.804688H257.883C258.547 0.804688 259.172 0.933594 259.758 1.19141C260.344 1.44141 260.852 1.78516 261.281 2.22266C261.719 2.65234 262.062 3.16016 262.312 3.74609C262.562 4.32422 262.688 4.94141 262.688 5.59766C262.688 6.13672 262.602 6.65625 262.43 7.15625C262.258 7.64844 262.016 8.10156 261.703 8.51562C261.398 8.92188 261.035 9.27344 260.613 9.57031C260.191 9.86719 259.73 10.0859 259.23 10.2266L263.121 14ZM280.641 14H278.238V10.3789H268.992V7.92969H278.238V3.17188H271.992C271.406 3.17188 270.855 3.28516 270.34 3.51172C269.824 3.73047 269.375 4.03125 268.992 4.41406C268.609 4.79688 268.305 5.24609 268.078 5.76172C267.859 6.26953 267.75 6.81641 267.75 7.40234V14H265.324V7.40234C265.324 6.48047 265.5 5.61719 265.852 4.8125C266.203 4.00781 266.68 3.30469 267.281 2.70312C267.883 2.10156 268.59 1.62891 269.402 1.28516C270.215 0.933594 271.078 0.757812 271.992 0.757812H280.641V14ZM291.398 14H288.996V3.17188H282.645V0.804688H297.738V3.17188H291.398V14ZM315.176 7.37891C315.176 8.29297 315.031 9.15234 314.742 9.95703C314.453 10.7539 314.039 11.4531 313.5 12.0547C312.969 12.6562 312.328 13.1328 311.578 13.4844C310.836 13.8281 310.008 14 309.094 14H304.922C304.008 14 303.176 13.8281 302.426 13.4844C301.676 13.1328 301.031 12.6562 300.492 12.0547C299.961 11.4531 299.551 10.7539 299.262 9.95703C298.973 9.15234 298.828 8.29297 298.828 7.37891C298.828 6.47266 298.973 5.62109 299.262 4.82422C299.551 4.02734 299.961 3.33203 300.492 2.73828C301.031 2.13672 301.676 1.66406 302.426 1.32031C303.176 0.976562 304.008 0.804688 304.922 0.804688H309.094C310.008 0.804688 310.836 0.976562 311.578 1.32031C312.328 1.66406 312.969 2.13672 313.5 2.73828C314.039 3.33203 314.453 4.02734 314.742 4.82422C315.031 5.62109 315.176 6.47266 315.176 7.37891ZM312.773 7.37891C312.773 6.80078 312.688 6.25781 312.516 5.75C312.352 5.23438 312.109 4.78906 311.789 4.41406C311.477 4.03125 311.094 3.73047 310.641 3.51172C310.188 3.28516 309.672 3.17188 309.094 3.17188H304.922C304.344 3.17188 303.824 3.28516 303.363 3.51172C302.91 3.73047 302.523 4.03125 302.203 4.41406C301.891 4.78906 301.648 5.23438 301.477 5.75C301.312 6.25781 301.23 6.80078 301.23 7.37891C301.23 7.95703 301.312 8.50391 301.477 9.01953C301.648 9.52734 301.891 9.97266 302.203 10.3555C302.523 10.7383 302.91 11.043 303.363 11.2695C303.824 11.4883 304.344 11.5977 304.922 11.5977H309.094C309.672 11.5977 310.188 11.4883 310.641 11.2695C311.094 11.043 311.477 10.7383 311.789 10.3555C312.109 9.97266 312.352 9.52734 312.516 9.01953C312.688 8.50391 312.773 7.95703 312.773 7.37891ZM333.363 14H330.094L326.344 10.4258H321.48V8.04688H328.125C328.461 8.04688 328.777 7.98047 329.074 7.84766C329.371 7.71484 329.629 7.53906 329.848 7.32031C330.066 7.09375 330.238 6.83203 330.363 6.53516C330.488 6.23828 330.551 5.92578 330.551 5.59766C330.551 5.26172 330.488 4.94922 330.363 4.66016C330.238 4.36328 330.066 4.10547 329.848 3.88672C329.629 3.66797 329.371 3.49609 329.074 3.37109C328.777 3.23828 328.461 3.17188 328.125 3.17188H320.227V14H317.824V0.804688H328.125C328.789 0.804688 329.414 0.933594 330 1.19141C330.586 1.44141 331.094 1.78516 331.523 2.22266C331.961 2.65234 332.305 3.16016 332.555 3.74609C332.805 4.32422 332.93 4.94141 332.93 5.59766C332.93 6.13672 332.844 6.65625 332.672 7.15625C332.5 7.64844 332.258 8.10156 331.945 8.51562C331.641 8.92188 331.277 9.27344 330.855 9.57031C330.434 9.86719 329.973 10.0859 329.473 10.2266L333.363 14Z" fill="url(#paint0_linear_1_4)"/>
<defs>
<linearGradient id="paint0_linear_1_4" x1="74" y1="16" x2="372" y2="16" gradientUnits="userSpaceOnUse">
<stop stop-color="#EB6424"/>
<stop offset="1" stop-color="#FFAE63" stop-opacity="0.79"/>
</linearGradient>
</defs>
</svg>
